<svg xmlns="http://www.w3.org/2000/svg" width="2400" height="4521" viewBox="0 0 2400 4521" role="img" aria-labelledby="title desc"><title id="title">水面算法、效果、场景与扩展总图</title><desc id="desc">五部分：因果链、十个模块、八个场景配方、四级扩展路径与验证。完整文字说明见同目录汇总网页。</desc><rect width="2400" height="4521" fill="#f6f5ef"/><g font-family="Microsoft YaHei, Noto Sans CJK SC, sans-serif"><rect x="0" y="0" width="2400" height="260" rx="0" fill="#173c3b"/><text x="72" y="60" font-size="23" font-weight="400" fill="#a9d5c4">COASTAL FIELD GUIDE    /    008 · 009 · 010</text><text x="72" y="158" font-size="67" font-weight="700" fill="#ffffff">从算法，到一片水的样子</text><text x="74" y="220" font-size="30" font-weight="400" fill="#dae9df">算法 × 可见效果 × 使用场景 × 扩展路径</text><text x="2050" y="106" font-size="40" font-weight="700" fill="#cce2b7">理解总图</text><text x="2050" y="148" font-size="22" font-weight="400" fill="#cce2b7">研究快照 2026.09.27</text><text x="2050" y="187" font-size="19" font-weight="400" fill="#cce2b7">C = coastal   S = ShoreBreak</text><text x="72" y="322" font-size="25" font-weight="700" fill="#257d70">01</text><text x="133" y="326" font-size="37" font-weight="700" fill="#173c3b">先建立因果链：水怎么动，决定它怎样被看见</text><text x="2068" y="322" font-size="20" font-weight="400" fill="#536b6c">原理示意 · 不是仿真输出</text><line x1="72" y1="355" x2="2328" y2="355" stroke="#d9e2dc" stroke-width="2"/><rect x="72" y="380" width="543" height="183" rx="14" fill="#ffffff"/><text x="96" y="428" font-size="30" font-weight="700" fill="#173c3b">01  输入与约束</text><text x="96" y="474" font-size="23" font-weight="400" fill="#257d70">风浪 / 地形 / 边界 / 光源 / 相机</text><text x="96" y="521" font-size="22" font-weight="400" fill="#536b6c">定义海况、岸线、材质和观察位置。</text><line x1="618" y1="472" x2="637" y2="472" stroke="#257d70" stroke-width="3"/><line x1="637" y1="472" x2="625.9171812132264" y2="478.79493397609855" stroke="#257d70" stroke-width="3"/><line x1="637" y1="472" x2="625.9171812132264" y2="465.20506602390145" stroke="#257d70" stroke-width="3"/><rect x="643" y="380" width="543" height="183" rx="14" fill="#ffffff"/><text x="667" y="428" font-size="30" font-weight="700" fill="#173c3b">02  运动与几何</text><text x="667" y="474" font-size="23" font-weight="400" fill="#257d70">波形 / 浅水 / 独立浪唇 / 粒子</text><text x="667" y="521" font-size="22" font-weight="400" fill="#536b6c">生成高度、斜率、流速与水幕位置。</text><line x1="1189" y1="472" x2="1208" y2="472" stroke="#257d70" stroke-width="3"/><line x1="1208" y1="472" x2="1196.9171812132265" y2="478.79493397609855" stroke="#257d70" stroke-width="3"/><line x1="1208" y1="472" x2="1196.9171812132265" y2="465.20506602390145" stroke="#257d70" stroke-width="3"/><rect x="1214" y="380" width="543" height="183" rx="14" fill="#ffffff"/><text x="1238" y="428" font-size="30" font-weight="700" fill="#173c3b">03  外观与记忆</text><text x="1238" y="474" font-size="23" font-weight="400" fill="#257d70">泡沫 / 水膜 / 湿度 / 表面材质</text><text x="1238" y="521" font-size="22" font-weight="400" fill="#536b6c">把冲击、流动和退水历史变成细节。</text><line x1="1760" y1="472" x2="1779" y2="472" stroke="#257d70" stroke-width="3"/><line x1="1779" y1="472" x2="1767.9171812132265" y2="478.79493397609855" stroke="#257d70" stroke-width="3"/><line x1="1779" y1="472" x2="1767.9171812132265" y2="465.20506602390145" stroke="#257d70" stroke-width="3"/><rect x="1785" y="380" width="543" height="183" rx="14" fill="#ffffff"/><text x="1809" y="428" font-size="30" font-weight="700" fill="#173c3b">04  光线与成像</text><text x="1809" y="474" font-size="23" font-weight="400" fill="#257d70">反射 / 折射 / 吸收 / 体积效果</text><text x="1809" y="521" font-size="22" font-weight="400" fill="#536b6c">结合角度与光程，形成最终可见画面。</text><rect x="72" y="582" width="2256" height="62" rx="10" fill="#e1ece4"/><text x="98" y="624" font-size="26" font-weight="600" fill="#173c3b">连接条件：同一坐标与地形 · 同一时刻 · 一致单位 · 高度 / 流速 / 法线共享 · 明确水量与动量交换</text><text x="72" y="699" font-size="24" font-weight="700" fill="#257d70">C 路线</text><text x="212" y="700" font-size="25" font-weight="400" fill="#173c3b">解析波 → 固定浅水区域 → 泡沫 / 湿沙 → 水面光学</text><text x="1225" y="699" font-size="24" font-weight="700" fill="#3e708c">S 路线</text><text x="1365" y="700" font-size="25" font-weight="400" fill="#173c3b">FFT 风浪 + 事件破浪 / 浪唇 → 局部浅水 + 水下效果</text><text x="72" y="769" font-size="25" font-weight="700" fill="#257d70">02</text><text x="133" y="773" font-size="37" font-weight="700" fill="#173c3b">把完整画面拆成 10 个模块</text><text x="1968" y="769" font-size="20" font-weight="400" fill="#536b6c">①—⑦ 对应实验室的七组独立教学实验</text><line x1="72" y1="802" x2="2328" y2="802" stroke="#d9e2dc" stroke-width="2"/><rect x="72" y="821" width="390" height="59" rx="0" fill="#173c3b"/><text x="92" y="860" font-size="24" font-weight="600" fill="#ffffff">模块 / 技术算法</text><rect x="462" y="821" width="575" height="59" rx="0" fill="#173c3b"/><text x="482" y="860" font-size="24" font-weight="600" fill="#ffffff">计算与关键输入</text><rect x="1037" y="821" width="610" height="59" rx="0" fill="#173c3b"/><text x="1057" y="860" font-size="24" font-weight="600" fill="#ffffff">看见什么 / 可以复用到哪里</text><rect x="1647" y="821" width="681" height="59" rx="0" fill="#173c3b"/><text x="1667" y="860" font-size="24" font-weight="600" fill="#ffffff">原库与教学模型 / 重要边界</text><rect x="72" y="880" width="2256" height="222" rx="0" fill="#ffffff"/><rect x="72" y="900" width="5" height="182" rx="0" fill="#257d70"/><text x="92" y="917" font-size="20" font-weight="700" fill="#257d70">01 / 运动</text><text x="92" y="961" font-size="28" font-weight="700" fill="#173c3b">波形合成</text><text x="92" y="1010" font-size="22" font-weight="400" fill="#536b6c">解析波叠加 / 频谱 + IFFT</text><text x="482" y="925" font-size="24" font-weight="400" fill="#536b6c">把频率、方向和能量转换成高度与斜率。FFT 是</text><text x="482" y="960" font-size="24" font-weight="400" fill="#536b6c">变换工具，海况来自所选波谱与参数。</text><text x="482" y="1005" font-size="22" font-weight="400" fill="#257d70">调整：振幅、波长、方向、风浪谱、随机种子</text><text x="1057" y="925" font-size="24" font-weight="400" fill="#173c3b">长涌、短浪、多尺度起伏；斜率提供反光所需的法线</text><text x="1057" y="960" font-size="24" font-weight="400" fill="#173c3b">。</text><text x="1057" y="1005" font-size="22" font-weight="400" fill="#536b6c">复用：海洋背景、湖泊、水池；更真实的风场与远近细节</text><text x="1057" y="1037" font-size="22" font-weight="400" fill="#536b6c">。</text><text x="1667" y="919" font-size="22" font-weight="400" fill="#536b6c">C：四组解析波；S：三层 FFT 风浪，主要破浪另由事件驱动。</text><text x="1667" y="960" font-size="22" font-weight="600" fill="#257d70">① 波浪：四波叠加 / 32² Gaussian 教学谱</text><text x="1667" y="1000" font-size="21" font-weight="400" fill="#94622b">教学频谱不是完整 JONSWAP；单值高度场无法表达倒卷水幕。</text><line x1="72" y1="1102" x2="2328" y2="1102" stroke="#d9e2dc" stroke-width="2"/><rect x="72" y="1102" width="2256" height="222" rx="0" fill="#edf2ed"/><rect x="72" y="1122" width="5" height="182" rx="0" fill="#257d70"/><text x="92" y="1139" font-size="20" font-weight="700" fill="#257d70">02 / 运动</text><text x="92" y="1183" font-size="28" font-weight="700" fill="#173c3b">浅水与湿干边界</text><text x="92" y="1232" font-size="22" font-weight="400" fill="#536b6c">压力梯度 / 有限体积 / 保正通量</text><text x="482" y="1147" font-size="24" font-weight="400" fill="#536b6c">以地形、水深和水平流动为状态，通过格子之间的</text><text x="482" y="1182" font-size="24" font-weight="400" fill="#536b6c">通量更新水量。</text><text x="482" y="1227" font-size="22" font-weight="400" fill="#257d70">调整：地形高程、边界水位、摩擦、格距、时间步</text><text x="1057" y="1147" font-size="24" font-weight="400" fill="#173c3b">冲滩、退水、绕石、浅溪流动、移动的湿干边界。</text><text x="1057" y="1192" font-size="22" font-weight="400" fill="#536b6c">复用：沟渠、浅水景观、薄层积水；需重新配置边界与地</text><text x="1057" y="1224" font-size="22" font-weight="400" fill="#536b6c">形。</text><text x="1667" y="1141" font-size="22" font-weight="400" fill="#536b6c">C：CPU Worker，可选 Wasm；S：GPU 中心迎风浅水求解。</text><text x="1667" y="1182" font-size="22" font-weight="600" fill="#257d70">② 浅水：48 × 28 保正水量通量模型</text><text x="1667" y="1222" font-size="21" font-weight="400" fill="#94622b">教学版省略非线性动量平流；守恒通过不代表工程预测准确。</text><line x1="72" y1="1324" x2="2328" y2="1324" stroke="#d9e2dc" stroke-width="2"/><rect x="72" y="1324" width="2256" height="222" rx="0" fill="#ffffff"/><rect x="72" y="1344" width="5" height="182" rx="0" fill="#257d70"/><text x="92" y="1361" font-size="20" font-weight="700" fill="#257d70">03 / 运动</text><text x="92" y="1405" font-size="28" font-weight="700" fill="#173c3b">翻卷浪唇与水幕</text><text x="92" y="1454" font-size="22" font-weight="400" fill="#536b6c">事件调度 / 参数化几何 / 弹道</text><text x="482" y="1369" font-size="24" font-weight="400" fill="#536b6c">按破浪阶段塑造浪峰，独立网格表达伸出、翻卷与</text><text x="482" y="1404" font-size="24" font-weight="400" fill="#536b6c">落下的水幕。</text><text x="482" y="1449" font-size="22" font-weight="400" fill="#257d70">调整：事件时刻、浪唇高度、发射速度、重力</text><text x="1057" y="1369" font-size="24" font-weight="400" fill="#173c3b">向前翻卷的浪头、浪腔、落水冲击与可控镜头。</text><text x="1057" y="1414" font-size="22" font-weight="400" fill="#536b6c">复用：冲浪镜头、水幕特效；接入冲击位置与水量、动量</text><text x="1057" y="1446" font-size="22" font-weight="400" fill="#536b6c">交换。</text><text x="1667" y="1363" font-size="22" font-weight="400" fill="#536b6c">S：LipRibbon 独立网格，冲击连接浅水；C：无独立翻卷水幕</text><text x="1667" y="1395" font-size="22" font-weight="400" fill="#536b6c">。</text><text x="1667" y="1436" font-size="22" font-weight="600" fill="#257d70">⑥ 翻卷：二维剖面与独立弹道轨迹</text><text x="1667" y="1476" font-size="21" font-weight="400" fill="#94622b">不是任意波浪自发破碎；教学版未连接浅水或三维自碰撞。</text><line x1="72" y1="1546" x2="2328" y2="1546" stroke="#d9e2dc" stroke-width="2"/><rect x="72" y="1546" width="2256" height="222" rx="0" fill="#edf2ed"/><rect x="72" y="1566" width="5" height="182" rx="0" fill="#94622b"/><text x="92" y="1583" font-size="20" font-weight="700" fill="#94622b">04 / 细节</text><text x="92" y="1627" font-size="28" font-weight="700" fill="#173c3b">泡沫生成与输运</text><text x="92" y="1676" font-size="22" font-weight="400" fill="#536b6c">源项 / 回溯采样 / 插值 / 消散</text><text x="482" y="1591" font-size="24" font-weight="400" fill="#536b6c">冲击等条件产生泡沫；沿速度反向采样上一帧浓度</text><text x="482" y="1626" font-size="24" font-weight="400" fill="#536b6c">，再按寿命衰减。</text><text x="482" y="1671" font-size="22" font-weight="400" fill="#257d70">调整：生成阈值、速度场、寿命、采样精度</text><text x="1057" y="1591" font-size="24" font-weight="400" fill="#173c3b">随流白沫、碎泡纹理、拉长的示踪条带。</text><text x="1057" y="1636" font-size="22" font-weight="400" fill="#536b6c">复用：水面染色、漂浮纹理；守恒污染物需采用相应输运</text><text x="1057" y="1668" font-size="22" font-weight="400" fill="#536b6c">模型。</text><text x="1667" y="1585" font-size="22" font-weight="400" fill="#536b6c">C / S：生成与搬运配合；白沫要跟随实际水流与冲击。</text><text x="1667" y="1626" font-size="22" font-weight="600" fill="#257d70">③ 输运：给定二维速度场的被动标量</text><text x="1667" y="1666" font-size="21" font-weight="400" fill="#94622b">教学版不求速度；插值会耗散，任意流场不保证严格总量守恒。</text><line x1="72" y1="1768" x2="2328" y2="1768" stroke="#d9e2dc" stroke-width="2"/><rect x="72" y="1768" width="2256" height="222" rx="0" fill="#ffffff"/><rect x="72" y="1788" width="5" height="182" rx="0" fill="#94622b"/><text x="92" y="1805" font-size="20" font-weight="700" fill="#94622b">05 / 细节</text><text x="92" y="1849" font-size="28" font-weight="700" fill="#173c3b">水膜与湿度记忆</text><text x="92" y="1898" font-size="22" font-weight="400" fill="#536b6c">状态累积 / 指数衰减 / 材质映射</text><text x="482" y="1813" font-size="24" font-weight="400" fill="#536b6c">分别记录短暂表面水膜与较慢消退的湿度，再映射</text><text x="482" y="1848" font-size="24" font-weight="400" fill="#536b6c">颜色和反光。</text><text x="482" y="1893" font-size="22" font-weight="400" fill="#257d70">调整：补水、排水、干燥速率、干湿材质</text><text x="1057" y="1813" font-size="24" font-weight="400" fill="#173c3b">湿沙反光、暗色退水痕、湿岩石、逐渐变干。</text><text x="1057" y="1858" font-size="22" font-weight="400" fill="#536b6c">复用：雨后地面、脚印、水渍；更换触发源与基底材质。</text><text x="1667" y="1807" font-size="22" font-weight="400" fill="#536b6c">C / S：均区分快水膜与慢湿度，保留退水后的历史。</text><text x="1667" y="1848" font-size="22" font-weight="600" fill="#257d70">④ 湿润：两个 0–1 的无量纲状态场</text><text x="1667" y="1888" font-size="21" font-weight="400" fill="#94622b">湿润着色不会让积水流向低处，也不计算材质内部渗流。</text><line x1="72" y1="1990" x2="2328" y2="1990" stroke="#d9e2dc" stroke-width="2"/><rect x="72" y="1990" width="2256" height="222" rx="0" fill="#edf2ed"/><rect x="72" y="2010" width="5" height="182" rx="0" fill="#3e708c"/><text x="92" y="2027" font-size="20" font-weight="700" fill="#3e708c">06 / 成像</text><text x="92" y="2071" font-size="28" font-weight="700" fill="#173c3b">水面反射与折射</text><text x="92" y="2120" font-size="22" font-weight="400" fill="#536b6c">法线 / Fresnel-Schlick / Sn</text><text x="92" y="2152" font-size="22" font-weight="400" fill="#536b6c">ell</text><text x="482" y="2035" font-size="24" font-weight="400" fill="#536b6c">用法线和观察方向分配反射与透射，再沿折射方向</text><text x="482" y="2070" font-size="24" font-weight="400" fill="#536b6c">取水下颜色。</text><text x="482" y="2115" font-size="22" font-weight="400" fill="#257d70">调整：相机角度、表面法线、折射率、粗糙度、环境光</text><text x="1057" y="2035" font-size="24" font-weight="400" fill="#173c3b">掠射时反光增强、倒影、透见水底、闪光与波纹。</text><text x="1057" y="2080" font-size="22" font-weight="400" fill="#536b6c">复用：水池、湖泊；玻璃可借鉴，但须更换几何与介质模</text><text x="1057" y="2112" font-size="22" font-weight="400" fill="#536b6c">型。</text><text x="1667" y="2029" font-size="22" font-weight="400" fill="#536b6c">C / S：水面光学与真实渲染环境相连；角度是输入条件。</text><text x="1667" y="2070" font-size="22" font-weight="600" fill="#257d70">⑤ 光学：反射比例、折射角与光线示意</text><text x="1667" y="2110" font-size="21" font-weight="400" fill="#94622b">教学版没有完整反射场景；多次反射、全反射需另行处理。</text><line x1="72" y1="2212" x2="2328" y2="2212" stroke="#d9e2dc" stroke-width="2"/><rect x="72" y="2212" width="2256" height="222" rx="0" fill="#ffffff"/><rect x="72" y="2232" width="5" height="182" rx="0" fill="#3e708c"/><text x="92" y="2249" font-size="20" font-weight="700" fill="#3e708c">07 / 成像</text><text x="92" y="2293" font-size="28" font-weight="700" fill="#173c3b">吸收与水下体积</text><text x="92" y="2342" font-size="22" font-weight="400" fill="#536b6c">Beer–Lambert / 局部光线步进</text><text x="482" y="2257" font-size="24" font-weight="400" fill="#536b6c">按水中光程累计各颜色的衰减；局部气泡与浑浊可</text><text x="482" y="2292" font-size="24" font-weight="400" fill="#536b6c">用体积密度表达。</text><text x="482" y="2337" font-size="22" font-weight="400" fill="#257d70">调整：光程、RGB 吸收系数、密度场、步进数</text><text x="1057" y="2257" font-size="24" font-weight="400" fill="#173c3b">深水颜色变化、水下朦胧、局部气泡云与能见度变化</text><text x="1057" y="2292" font-size="24" font-weight="400" fill="#173c3b">。</text><text x="1057" y="2337" font-size="22" font-weight="400" fill="#536b6c">复用：潜水、水下镜头；雾效可借鉴积分，但须补充散射</text><text x="1057" y="2369" font-size="22" font-weight="400" fill="#536b6c">。</text><text x="1667" y="2251" font-size="22" font-weight="400" fill="#536b6c">C：水深相关吸收；S：增加水下光学与局部体积气泡效果。</text><text x="1667" y="2292" font-size="22" font-weight="600" fill="#257d70">⑤ 光学：均匀介质 40 段透光率积分</text><text x="1667" y="2332" font-size="21" font-weight="400" fill="#94622b">步进的是局部体积，不是整个海面；教学版不含多次散射或真实焦散</text><text x="1667" y="2362" font-size="21" font-weight="400" fill="#94622b">。</text><line x1="72" y1="2434" x2="2328" y2="2434" stroke="#d9e2dc" stroke-width="2"/><rect x="72" y="2434" width="2256" height="222" rx="0" fill="#edf2ed"/><rect x="72" y="2454" width="5" height="182" rx="0" fill="#3e708c"/><text x="92" y="2471" font-size="20" font-weight="700" fill="#3e708c">08 / 成像</text><text x="92" y="2515" font-size="28" font-weight="700" fill="#173c3b">噪声与三向投影</text><text x="92" y="2564" font-size="22" font-weight="400" fill="#536b6c">Value noise / fBm / 法线权重</text><text x="482" y="2479" font-size="24" font-weight="400" fill="#536b6c">叠加不同尺度噪声产生纹理，按法线混合三个方向</text><text x="482" y="2514" font-size="24" font-weight="400" fill="#536b6c">的平面采样。</text><text x="482" y="2559" font-size="22" font-weight="400" fill="#257d70">调整：频率、层数、混合锐度、坐标空间</text><text x="1057" y="2479" font-size="24" font-weight="400" fill="#173c3b">岩石颗粒、沙纹、多尺度细节，减少单平面侧向拉伸</text><text x="1057" y="2514" font-size="24" font-weight="400" fill="#173c3b">。</text><text x="1057" y="2559" font-size="22" font-weight="400" fill="#536b6c">复用：岩石、悬崖、洞穴、地形；连接湿度可形成湿岩石</text><text x="1057" y="2591" font-size="22" font-weight="400" fill="#536b6c">。</text><text x="1667" y="2473" font-size="22" font-weight="400" fill="#536b6c">C：程序噪声与三向材质；S：另有摄影岩石素材与湿度系统。</text><text x="1667" y="2514" font-size="22" font-weight="600" fill="#257d70">⑦ 材质：球体上的噪声与投影权重</text><text x="1667" y="2554" font-size="21" font-weight="400" fill="#94622b">纹理不是几何；轮廓、碰撞体、水力地形仍需独立制作。</text><line x1="72" y1="2656" x2="2328" y2="2656" stroke="#d9e2dc" stroke-width="2"/><rect x="72" y="2656" width="2256" height="222" rx="0" fill="#ffffff"/><rect x="72" y="2676" width="5" height="182" rx="0" fill="#94622b"/><text x="92" y="2693" font-size="20" font-weight="700" fill="#94622b">09 / 细节</text><text x="92" y="2737" font-size="28" font-weight="700" fill="#173c3b">喷溅与粒子</text><text x="92" y="2786" font-size="22" font-weight="400" fill="#536b6c">接触触发 / 弹道积分 / 生命周期</text><text x="482" y="2701" font-size="24" font-weight="400" fill="#536b6c">在接触或冲击处发射粒子，按速度、重力和寿命推</text><text x="482" y="2736" font-size="24" font-weight="400" fill="#536b6c">进位置与可见度。</text><text x="482" y="2781" font-size="22" font-weight="400" fill="#257d70">调整：发射位置、初速度、数量、粒径、寿命</text><text x="1057" y="2701" font-size="24" font-weight="400" fill="#173c3b">撞石飞溅、落水水花、白水边缘的破碎细节。</text><text x="1057" y="2746" font-size="22" font-weight="400" fill="#536b6c">复用：喷泉、水花、雨滴冲击特效；需配置碰撞与触发条</text><text x="1057" y="2778" font-size="22" font-weight="400" fill="#536b6c">件。</text><text x="1667" y="2695" font-size="22" font-weight="400" fill="#536b6c">C：接触喷溅；S：破浪冲击驱动白水与喷溅系统。</text><text x="1667" y="2736" font-size="22" font-weight="600" fill="#257d70">⑥ 翻卷：落水后独立弹道粒子</text><text x="1667" y="2776" font-size="21" font-weight="400" fill="#94622b">装饰粒子通常不等于守恒水量；双向流体交换需专门建模。</text><line x1="72" y1="2878" x2="2328" y2="2878" stroke="#d9e2dc" stroke-width="2"/><rect x="72" y="2878" width="2256" height="222" rx="0" fill="#edf2ed"/><rect x="72" y="2898" width="5" height="182" rx="0" fill="#536b6c"/><text x="92" y="2915" font-size="20" font-weight="700" fill="#536b6c">10 / 系统</text><text x="92" y="2959" font-size="28" font-weight="700" fill="#173c3b">模块连接与算力分配</text><text x="92" y="3008" font-size="22" font-weight="400" fill="#536b6c">共享状态 / 固定步长 / 局部细节</text><text x="482" y="2923" font-size="24" font-weight="400" fill="#536b6c">统一世界坐标、地形与时间，把模拟结果传给几何</text><text x="482" y="2958" font-size="24" font-weight="400" fill="#536b6c">、材质、泡沫和相机。</text><text x="482" y="3003" font-size="22" font-weight="400" fill="#257d70">调整：网格范围、精度、刷新率、像素预算、插值</text><text x="1057" y="2923" font-size="24" font-weight="400" fill="#173c3b">水、石头、白沫、湿痕对齐，近处清晰，运行成本可</text><text x="1057" y="2958" font-size="24" font-weight="400" fill="#173c3b">控。</text><text x="1057" y="3003" font-size="22" font-weight="400" fill="#536b6c">复用：所有交互场景；提取模块接口，加入质量分级与性</text><text x="1057" y="3035" font-size="22" font-weight="400" fill="#536b6c">能测量。</text><text x="1667" y="2917" font-size="22" font-weight="400" fill="#536b6c">C：固定区域与 CPU / 渲染分工；S：GPU 与移动细节窗口。</text><text x="1667" y="2958" font-size="22" font-weight="600" fill="#257d70">实验室：共用 A/B 时间、种子和指标</text><text x="1667" y="2998" font-size="21" font-weight="400" fill="#94622b">渲染 API 与算法是不同层；实验室尚未把七组模型耦合成完整海岸</text><text x="1667" y="3028" font-size="21" font-weight="400" fill="#94622b">。</text><line x1="72" y1="3100" x2="2328" y2="3100" stroke="#d9e2dc" stroke-width="2"/><text x="72" y="3170" font-size="25" font-weight="700" fill="#257d70">03</text><text x="133" y="3174" font-size="37" font-weight="700" fill="#173c3b">从场景倒推组合：八种复用配方</text><text x="1828" y="3170" font-size="20" font-weight="400" fill="#536b6c">场景目标与组合建议 · 不代表八套已完成的写实场景</text><line x1="72" y1="3203" x2="2328" y2="3203" stroke="#d9e2dc" stroke-width="2"/><rect x="72" y="3227" width="543" height="192" rx="12" fill="#ffffff"/><text x="94" y="3271" font-size="28" font-weight="700" fill="#173c3b">开阔海面</text><text x="94" y="3310" font-size="22" font-weight="600" fill="#257d70">波形 + 法线 + 水面光学</text><text x="94" y="3348" font-size="21" font-weight="400" fill="#536b6c">接入：远近细节与海天环境</text><text x="94" y="3391" font-size="21" font-weight="400" fill="#94622b">边界：碰岸破浪另接近岸模型</text><rect x="643" y="3227" width="543" height="192" rx="12" fill="#ffffff"/><text x="665" y="3271" font-size="28" font-weight="700" fill="#173c3b">湖泊与泳池</text><text x="665" y="3310" font-size="22" font-weight="600" fill="#257d70">轻微波动 + 反射 / 折射 + 吸收</text><text x="665" y="3348" font-size="21" font-weight="400" fill="#536b6c">接入：池底、池壁与封闭岸线</text><text x="665" y="3391" font-size="21" font-weight="400" fill="#94622b">边界：物体扰动需接入运动系统</text><rect x="1214" y="3227" width="543" height="192" rx="12" fill="#ffffff"/><text x="1236" y="3271" font-size="28" font-weight="700" fill="#173c3b">浅溪与沟渠</text><text x="1236" y="3310" font-size="22" font-weight="600" fill="#257d70">浅水 + 地形 + 输运 + 光学</text><text x="1236" y="3348" font-size="21" font-weight="400" fill="#536b6c">接入：入口、出口、障碍与摩擦</text><text x="1236" y="3391" font-size="21" font-weight="400" fill="#94622b">边界：陡落瀑布超出单值高度场</text><rect x="1785" y="3227" width="543" height="192" rx="12" fill="#ffffff"/><text x="1807" y="3271" font-size="28" font-weight="700" fill="#173c3b">雨后地面</text><text x="1807" y="3310" font-size="22" font-weight="600" fill="#257d70">水膜 + 湿度 + 基底材质</text><text x="1807" y="3348" font-size="21" font-weight="400" fill="#536b6c">接入：雨、脚步或洒水作为触发源</text><text x="1807" y="3391" font-size="21" font-weight="400" fill="#94622b">边界：流动积水需增加浅水模块</text><rect x="72" y="3439" width="543" height="192" rx="12" fill="#ffffff"/><text x="94" y="3483" font-size="28" font-weight="700" fill="#173c3b">水下观察</text><text x="94" y="3522" font-size="22" font-weight="600" fill="#257d70">折射 + 吸收 + 局部体积</text><text x="94" y="3560" font-size="21" font-weight="400" fill="#536b6c">接入：相机水上 / 水下切换与密度</text><text x="94" y="3603" font-size="21" font-weight="400" fill="#94622b">边界：气泡、焦散、散射需另接入</text><rect x="643" y="3439" width="543" height="192" rx="12" fill="#ffffff"/><text x="665" y="3483" font-size="28" font-weight="700" fill="#173c3b">冲浪与水幕</text><text x="665" y="3522" font-size="22" font-weight="600" fill="#257d70">破浪几何 + 浅水 + 白水 + 光学</text><text x="665" y="3560" font-size="21" font-weight="400" fill="#536b6c">接入：浪唇落点、冲击与动量交换</text><text x="665" y="3603" font-size="21" font-weight="400" fill="#94622b">边界：任意三维破碎需要新增模型</text><rect x="1214" y="3439" width="543" height="192" rx="12" fill="#ffffff"/><text x="1236" y="3483" font-size="28" font-weight="700" fill="#173c3b">溪流泡沫 / 染色</text><text x="1236" y="3522" font-size="22" font-weight="600" fill="#257d70">速度场 + 源项 + 输运 + 消散</text><text x="1236" y="3560" font-size="21" font-weight="400" fill="#536b6c">接入：把预设速度换成真实流速</text><text x="1236" y="3603" font-size="21" font-weight="400" fill="#94622b">边界：守恒浓度须检查数值耗散</text><rect x="1785" y="3439" width="543" height="192" rx="12" fill="#ffffff"/><text x="1807" y="3483" font-size="28" font-weight="700" fill="#173c3b">岩石与悬崖</text><text x="1807" y="3522" font-size="22" font-weight="600" fill="#257d70">噪声 + 三向投影 + 湿度</text><text x="1807" y="3560" font-size="21" font-weight="400" fill="#536b6c">接入：几何、碰撞与水力地形一致</text><text x="1807" y="3603" font-size="21" font-weight="400" fill="#94622b">边界：材质不能自动生成轮廓</text><text x="72" y="3713" font-size="25" font-weight="700" fill="#257d70">04</text><text x="133" y="3717" font-size="37" font-weight="700" fill="#173c3b">可扩展方向：先判断需要改哪一层</text><text x="1928" y="3713" font-size="20" font-weight="400" fill="#536b6c">以下为迁移与开发建议，不是原库已实现清单</text><line x1="72" y1="3746" x2="2328" y2="3746" stroke="#d9e2dc" stroke-width="2"/><rect x="72" y="3770" width="543" height="280" rx="12" fill="#e3ece4"/><text x="94" y="3810" font-size="24" font-weight="700" fill="#257d70">01</text><text x="151" y="3813" font-size="31" font-weight="700" fill="#173c3b">调参数</text><text x="94" y="3858" font-size="22" font-weight="400" fill="#257d70">已有行为中的变化</text><text x="94" y="3898" font-size="23" font-weight="400" fill="#173c3b">波更高、纹理更细、地面更快干、反光更强。</text><text x="94" y="3947" font-size="22" font-weight="400" fill="#536b6c">保持模型不变，固定其他输入，做 A/B 验证。</text><rect x="643" y="3770" width="543" height="280" rx="12" fill="#e3ece4"/><text x="665" y="3810" font-size="24" font-weight="700" fill="#257d70">02</text><text x="722" y="3813" font-size="31" font-weight="700" fill="#173c3b">适配场景</text><text x="665" y="3858" font-size="22" font-weight="400" fill="#257d70">换输入与约束</text><text x="665" y="3898" font-size="23" font-weight="400" fill="#173c3b">海岸换沟渠；湿沙换石板；雨滴触发湿度。</text><text x="665" y="3947" font-size="22" font-weight="400" fill="#536b6c">同步修改地形、边界、坐标、比例尺与材质。</text><rect x="1214" y="3770" width="543" height="280" rx="12" fill="#e3ece4"/><text x="1236" y="3810" font-size="24" font-weight="700" fill="#257d70">03</text><text x="1293" y="3813" font-size="31" font-weight="700" fill="#173c3b">连接模块</text><text x="1236" y="3858" font-size="22" font-weight="400" fill="#257d70">让不同能力协作</text><text x="1236" y="3898" font-size="23" font-weight="400" fill="#173c3b">泡沫读取浅水流速；浪唇冲击注入浅水；湿度驱</text><text x="1236" y="3931" font-size="23" font-weight="400" fill="#173c3b">动岩石材质。</text><text x="1236" y="3980" font-size="22" font-weight="400" fill="#536b6c">定义数据接口、单位、时序与水量 / 动量交换。</text><rect x="1785" y="3770" width="543" height="280" rx="12" fill="#eee5d6"/><text x="1807" y="3810" font-size="24" font-weight="700" fill="#257d70">04</text><text x="1864" y="3813" font-size="31" font-weight="700" fill="#173c3b">新增模型</text><text x="1807" y="3858" font-size="22" font-weight="400" fill="#257d70">超出现有表达范围</text><text x="1807" y="3898" font-size="23" font-weight="400" fill="#173c3b">船体浮力、倒水与三维破碎、泥沙侵蚀、真实渗</text><text x="1807" y="3931" font-size="23" font-weight="400" fill="#173c3b">流。</text><text x="1807" y="3980" font-size="22" font-weight="400" fill="#536b6c">增加相应物理与几何表达，配套新的验证；并非只</text><text x="1807" y="4012" font-size="22" font-weight="400" fill="#536b6c">改参数。</text><text x="72" y="4118" font-size="25" font-weight="700" fill="#257d70">05</text><text x="133" y="4122" font-size="37" font-weight="700" fill="#173c3b">怎样验证：先控制变量，再核对规律，最后看整体</text><text x="1808" y="4118" font-size="20" font-weight="400" fill="#536b6c">数学正确、画面可信、性能可用，是三件需要分别核对的事</text><line x1="72" y1="4151" x2="2328" y2="4151" stroke="#d9e2dc" stroke-width="2"/><text x="72" y="4206" font-size="27" font-weight="700" fill="#173c3b">局部数学</text><text x="72" y="4249" font-size="23" font-weight="400" fill="#536b6c">FFT 往返 / 实值性；水量收支 / 非负水深；半衰期；吸收解析解；</text><text x="72" y="4282" font-size="23" font-weight="400" fill="#536b6c">弹道；投影权重。</text><text x="834" y="4206" font-size="27" font-weight="700" fill="#173c3b">整体一致</text><text x="834" y="4249" font-size="23" font-weight="400" fill="#536b6c">固定时间、种子、相机；看岸线、白沫、水花、湿痕是否对齐；换地</text><text x="834" y="4282" font-size="23" font-weight="400" fill="#536b6c">形后再验证。</text><text x="1596" y="4206" font-size="27" font-weight="700" fill="#173c3b">性能与范围</text><text x="1596" y="4249" font-size="23" font-weight="400" fill="#536b6c">测加载、帧时间、内存、移动端和长时间运行。24 项教学检查不证明</text><text x="1596" y="4282" font-size="23" font-weight="400" fill="#536b6c">原库工程精度。</text><rect x="0" y="4371" width="2400" height="150" rx="0" fill="#173c3b"/><text x="72" y="4418" font-size="23" font-weight="400" fill="#e0ece2">网页路径：008 看浅水与湿沙 → 009 看破浪与水下 → 010 逐层调参验证 → summary.html 回顾全局</text><text x="72" y="4459" font-size="21" font-weight="400" fill="#a9c8bc">来源快照：iamtechartist/coastal-simulation @ 2e95e1a3e757  ·  cryptomanavan/ShoreBreak @ 11c8c057db67</text><text x="72" y="4499" font-size="20" font-weight="400" fill="#a9c8bc">本图为源码研究与独立教学模型的综合整理；不是实拍、性能排名或完整三维流体的能力证明。详细来源与文字版见汇总页。</text></g></svg>